<svg xmlns="http://www.w3.org/2000/svg" width="148" height="164" viewBox="0 0 148 164">
  <defs>
    <style>
      .cls-1 {
        fill: #ffce00;
        fill-rule: evenodd;
      }
    </style>
  </defs>
  <path id="warbler-icon.svg_warbler-icon.png" data-name="warbler-icon.svg, warbler-icon.png" class="cls-1" d="M1301.1,16493.6l-48.39-28.1a25.523,25.523,0,0,0-25.8,0l-48.24,28.1a25.582,25.582,0,0,0-12.67,22.1v56.5a25.735,25.735,0,0,0,12.66,22.2l48.26,28.1a25.376,25.376,0,0,0,25.72,0l48.47-28.1a25.974,25.974,0,0,0,12.89-22.2v-56.5A25.82,25.82,0,0,0,1301.1,16493.6Zm8.9,78.6a21.712,21.712,0,0,1-10.91,18.7l-48.39,28.2a21.9,21.9,0,0,1-21.78,0l-48.24-28.2a21.5,21.5,0,0,1-10.68-18.7v-56.5a21.61,21.61,0,0,1,10.67-18.7l48.26-28.1a21.747,21.747,0,0,1,21.7,0l48.46,28.1a21.814,21.814,0,0,1,10.91,18.7v56.5Zm-14.45-72-46.15-26.9a19.253,19.253,0,0,0-19.41,0l-46.3,26.9a19.559,19.559,0,0,0-9.69,16.8v54a19.578,19.578,0,0,0,9.71,16.8l46.28,26.9a19.364,19.364,0,0,0,19.47,0l46.08-26.9a19.345,19.345,0,0,0,9.46-16.8v-54A19.336,19.336,0,0,0,1295.55,16500.2Zm-25.42,31a2.527,2.527,0,0,1-2.27,1.5h-5.85a1.01,1.01,0,0,0-1.01.9v15a21.068,21.068,0,0,1-9.12,17.6,2.172,2.172,0,0,0-.88,1.8v12.3a2,2,0,1,1-4,0v-9.8a2.026,2.026,0,0,0-4,0v9.8a2,2,0,1,1-4,0v-9.1a0.878,0.878,0,0,0-.86-1c-9.75,0-13.89,11.1-14.85,15.6a2.439,2.439,0,0,1-2.37,1.9h-0.25a2.426,2.426,0,0,1-2.19-2.4l0.03-21.4-0.01-11.1c0-.1-0.02-0.1-0.02-0.1,0-.2.02-0.3,0.02-0.4l-0.02-36.1a21.375,21.375,0,0,1,41.51-7.3,1.479,1.479,0,0,0,1.38,1l6.47-.1h0.01a2.481,2.481,0,0,1,1.77,4.2l-6.22,6.4a1.389,1.389,0,0,0,.01,1.9l6.2,6.2A2.482,2.482,0,0,1,1270.13,16531.2Zm-9.21-16.4h-2.5a2.428,2.428,0,0,1-2.4-2,16.491,16.491,0,0,0-32.63,3.4l0.02,55a0.688,0.688,0,0,0,1.21.5,17.8,17.8,0,0,1,13.89-6.5l1.65-.1a16.272,16.272,0,0,0,15.84-16.5v-18.4a2.8,2.8,0,0,1,.9-1.7,3.21,3.21,0,0,1,1.91-.7h1.96a0.533,0.533,0,0,0,.37-0.9c-1.53-1.6-4.2-4.6-4.2-4.6a1.268,1.268,0,0,1-.01-1.8l4.36-4.9A0.478,0.478,0,0,0,1260.92,16514.8Zm-15.75,1.8a4.249,4.249,0,0,1-4.27-4.3A4.27,4.27,0,1,1,1245.17,16516.6Z" transform="translate(-1166 -16462)"/>
</svg>
